<?xml version="1.0" encoding="UTF-8"?>
<svg id="Layer_2" data-name="Layer 2" xmlns="http://www.w3.org/2000/svg" viewBox="0 0 703.86 586.5">
  <defs>
    <style>
      .cls-1 {
        fill: #f7ec13;
      }

      .cls-1, .cls-2, .cls-3, .cls-4, .cls-5, .cls-6, .cls-7, .cls-8, .cls-9 {
        stroke: #fff;
        stroke-miterlimit: 10;
      }

      .cls-2 {
        fill: #f3b650;
      }

      .cls-10 {
        letter-spacing: 0em;
      }

      .cls-10, .cls-11 {
        fill: #a1abbd;
        font-family: Comfortaa-SemiBold, Comfortaa;
        font-size: 13px;
        font-variation-settings: 'wght' 600;
        font-weight: 600;
      }

      .cls-3 {
        fill: #008791;
      }

      .cls-4 {
        stroke-width: 3px;
      }

      .cls-4, .cls-6 {
        fill: none;
      }

      .cls-5 {
        fill: #eb6341;
      }

      .cls-6 {
        stroke-width: 2px;
      }

      .cls-7 {
        fill: #3d2e8e;
      }

      .cls-11 {
        letter-spacing: .01em;
      }

      .cls-8 {
        fill: #7f2675;
      }

      .cls-9 {
        fill: #da529d;
      }
    </style>
  </defs>
  <path class="cls-5" d="m435.83,411.72l50.12,69.36s68.69-45.52,70.97-132.62c0,0-.21-37.55-7.03-54.72-6.83-17.17-33.72-115.97-165.03-124.24l.24,86.41s66.31-1.99,84.52,68.77c0,0,10.86,56.17-33.78,87.05Z"/>
  <path class="cls-8" d="m485.88,481.26s-37.88,29.83-89.39,32.52c0,0-47.25,5.31-84.66-16.28l36.58-77.41s42.8,23.03,87.34-8.16l50.14,69.33Z"/>
  <path class="cls-7" d="m311.74,497.88l36.67-77.78s-48.92-16.96-49.23-82.84l-85.73-5.61s-12.69,112.33,98.29,166.23Z"/>
  <path class="cls-1" d="m299.12,331.53l-84.85-10.53s-1.09,5.84-.91,10.73l85.59,5.26.17-5.47Z"/>
  <path class="cls-9" d="m299.15,331.53s4.19-41.56,44.22-64.92l-41.26-74.81s-74,34.17-87.8,129.16l84.84,10.58Z"/>
  <path class="cls-2" d="m343.27,266.37s13.87-7.1,25.5-8.99l-16.03-84.03s-29.48,4.41-50.67,18.21l41.2,74.81Z"/>
  <path class="cls-3" d="m368.77,256.79s13.62-1.67,16.15-1.1l.21-86s-21.76-.31-32.24,3.14l15.88,83.96Z"/>
  <circle class="cls-6" cx="385.09" cy="342" r="86.62"/>
  <rect class="cls-5" x="89.09" y="109.35" width="41.1" height="12.97" rx="6.48" ry="6.48"/>
  <rect class="cls-1" x="89.59" y="131.54" width="41.1" height="12.97" rx="6.48" ry="6.48"/>
  <rect class="cls-9" x="225.87" y="131.64" width="41.1" height="12.97" rx="6.48" ry="6.48"/>
  <rect class="cls-2" x="405.59" y="131.43" width="41.1" height="12.97" rx="6.48" ry="6.48"/>
  <rect class="cls-3" x="533.45" y="132.57" width="41.1" height="12.97" rx="6.48" ry="6.48"/>
  <rect class="cls-8" x="226.23" y="109.28" width="41.1" height="12.97" rx="6.48" ry="6.48"/>
  <rect class="cls-7" x="405.19" y="109.45" width="41.1" height="12.97" rx="6.48" ry="6.48"/>
  <text class="cls-11" transform="translate(144.81 142.05) scale(.98 1)"><tspan x="0" y="0">Team 1%</tspan></text>
  <text class="cls-11" transform="translate(271.01 142.38) scale(.98 1)"><tspan x="0" y="0">NFT &amp; Rewards 15%</tspan></text>
  <text class="cls-11" transform="translate(454.7 142.21) scale(.98 1)"><tspan x="0" y="0">Airdrop 5%</tspan></text>
  <text class="cls-10" transform="translate(580.08 142.62) scale(.98 1)"><tspan x="0" y="0">Early Adopters 3%</tspan></text>
  <text class="cls-11" transform="translate(132.49 119.7) scale(.98 1)"><tspan x="0" y="0">Liquidity 40%</tspan></text>
  <text class="cls-11" transform="translate(272.38 120.67) scale(.98 1)"><tspan x="0" y="0">Blackrock ETF 17%</tspan></text>
  <text class="cls-11" transform="translate(450.56 120.95) scale(.98 1)"><tspan x="0" y="0" xml:space="preserve"> Development &amp; Marketing 19% </tspan></text>
  <circle class="cls-4" cx="385.09" cy="342" r="171.31"/>
</svg>