<?xml version="1.0" standalone="no"?>
<!DOCTYPE svg PUBLIC "-//W3C//DTD SVG 20010904//EN"
 "http://www.w3.org/TR/2001/REC-SVG-20010904/DTD/svg10.dtd">
<svg version="1.0" xmlns="http://www.w3.org/2000/svg"
 width="1024.000000pt" height="1024.000000pt" viewBox="0 0 1024.000000 1024.000000"
 preserveAspectRatio="xMidYMid meet">
<metadata>
Created by potrace 1.14, written by Peter Selinger 2001-2017
</metadata>
<g transform="translate(0.000000,1024.000000) scale(0.100000,-0.100000)"
fill="#000000" stroke="none">
<path d="M4700 9706 c19 -19 10 -23 -52 -30 -35 -4 -110 -13 -168 -20 -58 -8
-116 -14 -130 -15 -64 -3 -130 -14 -130 -22 0 -5 -15 -9 -32 -8 -18 1 -46 -3
-61 -10 -16 -6 -32 -9 -37 -6 -5 3 -14 0 -22 -7 -7 -7 -29 -15 -48 -16 -19 -2
-38 -8 -41 -14 -3 -5 -20 -7 -38 -5 -22 4 -31 1 -31 -8 0 -18 -36 -32 -93 -34
-16 0 -26 -5 -23 -10 4 -5 -7 -12 -24 -16 -32 -7 -46 -4 -43 7 2 4 -4 5 -12 2
-8 -4 -15 -10 -15 -15 0 -5 -11 -9 -24 -9 -14 0 -28 -5 -31 -11 -4 -5 -12 -8
-18 -6 -7 2 -18 -2 -25 -10 -7 -7 -24 -13 -38 -13 -13 0 -24 -5 -24 -12 0 -6
-3 -8 -7 -5 -3 4 -12 2 -20 -5 -8 -6 -29 -12 -48 -14 -38 -2 -58 -12 -50 -24
3 -4 -11 -11 -30 -14 -21 -4 -33 -11 -29 -17 4 -6 -2 -9 -13 -7 -10 1 -30 -7
-43 -20 -13 -12 -30 -20 -37 -17 -8 2 -23 -5 -35 -17 -12 -12 -34 -21 -50 -21
-17 0 -28 -6 -28 -14 0 -9 -9 -14 -22 -13 -39 3 -48 1 -48 -15 0 -15 -4 -17
-52 -18 -16 -1 -28 -7 -28 -14 0 -7 -11 -19 -25 -25 -14 -6 -25 -15 -25 -20 0
-4 -3 -7 -7 -7 -21 3 -33 -2 -33 -15 0 -17 -17 -24 -52 -20 -19 2 -28 -2 -28
-12 0 -8 -9 -14 -20 -14 -14 0 -20 -7 -20 -21 0 -15 -5 -19 -15 -15 -9 3 -18
-1 -22 -10 -3 -8 -12 -13 -19 -10 -8 3 -14 -1 -14 -10 0 -12 -7 -15 -25 -12
-13 3 -22 2 -20 -3 7 -10 -23 -39 -40 -39 -8 0 -17 -9 -20 -21 -4 -12 -12 -18
-21 -15 -7 3 -24 -5 -37 -17 -13 -12 -29 -23 -37 -25 -8 -2 -20 -12 -28 -24
-10 -13 -22 -18 -38 -15 -13 2 -22 1 -20 -2 3 -3 -2 -15 -10 -26 -8 -10 -14
-16 -14 -12 0 4 -9 3 -20 -3 -11 -6 -20 -17 -20 -25 0 -8 -4 -14 -9 -13 -5 2
-18 -7 -28 -19 -13 -14 -28 -21 -42 -18 -12 2 -19 0 -16 -5 7 -11 -60 -81 -95
-101 -14 -7 -31 -12 -39 -10 -9 2 -12 -3 -8 -14 4 -9 1 -18 -8 -21 -8 -4 -15
-12 -15 -20 0 -8 -7 -14 -15 -14 -8 0 -15 -5 -15 -12 0 -6 -3 -9 -6 -5 -10 9
-32 -17 -27 -31 3 -7 2 -12 -3 -11 -22 4 -33 -2 -39 -20 -4 -12 -12 -18 -21
-14 -8 3 -14 -1 -14 -9 0 -7 -9 -20 -19 -28 -11 -7 -17 -18 -14 -23 3 -6 1 -7
-6 -3 -12 8 -41 -16 -41 -33 0 -6 -7 -11 -16 -11 -8 0 -12 -4 -9 -10 3 -5 1
-10 -5 -10 -6 0 -9 -4 -6 -9 3 -5 -6 -12 -20 -15 -17 -5 -24 -12 -20 -21 3 -8
1 -15 -5 -15 -6 0 -7 -5 -3 -12 5 -8 2 -9 -10 -5 -9 4 -14 3 -11 -2 7 -12 -35
-42 -48 -34 -6 3 -7 1 -3 -5 4 -7 2 -12 -3 -12 -6 0 -10 -3 -9 -8 5 -14 -37
-59 -53 -57 -12 2 -15 -4 -11 -23 3 -17 1 -23 -7 -18 -6 4 -15 -2 -20 -16 -5
-13 -21 -31 -35 -42 -14 -10 -23 -22 -20 -27 3 -5 -6 -14 -20 -20 -14 -7 -23
-16 -20 -20 3 -5 -7 -20 -21 -33 -15 -14 -24 -30 -20 -35 3 -6 -5 -22 -18 -35
-14 -14 -22 -27 -19 -30 3 -3 0 -6 -7 -6 -7 0 -9 -5 -5 -12 5 -8 2 -9 -9 -5
-12 5 -17 1 -17 -14 0 -11 -7 -22 -15 -25 -8 -3 -20 -21 -26 -39 -7 -19 -21
-36 -32 -39 -14 -3 -18 -11 -14 -25 3 -13 1 -18 -8 -15 -7 3 -15 -6 -20 -23
-3 -15 -12 -35 -20 -43 -7 -8 -15 -24 -17 -35 -2 -11 -11 -20 -19 -19 -8 1
-16 -8 -17 -20 0 -11 -6 -22 -12 -24 -5 -2 -10 -12 -10 -23 0 -13 -7 -19 -21
-19 -17 0 -20 -5 -17 -30 1 -17 -2 -34 -7 -38 -17 -12 -45 -60 -45 -77 0 -9
-4 -13 -10 -10 -5 3 -15 -14 -21 -39 -7 -30 -15 -43 -24 -40 -9 4 -13 -2 -11
-20 3 -24 -5 -31 -28 -27 -5 1 -6 -5 -3 -14 4 -8 3 -15 -1 -15 -4 0 -8 -15 -9
-32 -2 -18 -7 -34 -13 -36 -5 -2 -10 -9 -10 -16 0 -7 -11 -33 -25 -57 -24 -43
-29 -52 -42 -86 -9 -24 -10 -31 -12 -48 0 -8 -8 -15 -16 -15 -8 0 -15 -5 -15
-11 0 -5 4 -7 10 -4 5 3 10 -1 10 -9 0 -9 -5 -16 -11 -16 -5 0 -8 -3 -6 -7 6
-9 -18 -34 -25 -27 -3 2 -4 -16 -4 -40 1 -32 -3 -42 -12 -39 -7 3 -12 2 -11
-3 5 -17 -13 -74 -22 -74 -6 0 -7 -4 -4 -10 3 -5 1 -10 -5 -10 -6 0 -9 -4 -6
-8 6 -10 -15 -91 -37 -142 -8 -19 -12 -41 -10 -47 3 -7 -3 -20 -11 -29 -9 -8
-14 -20 -10 -25 5 -8 -5 -50 -23 -99 -3 -8 -7 -31 -10 -50 -2 -19 -6 -42 -10
-50 -10 -23 -10 -27 -12 -66 -1 -24 -5 -33 -13 -28 -8 5 -9 2 -5 -9 3 -10 2
-17 -4 -17 -5 0 -7 -11 -5 -25 3 -13 1 -27 -3 -29 -4 -3 -6 -19 -3 -37 3 -19
1 -29 -5 -26 -6 4 -8 -12 -7 -40 2 -25 -2 -57 -8 -72 -5 -14 -12 -42 -14 -61
-2 -19 -6 -55 -9 -80 -4 -25 -6 -55 -6 -68 0 -13 -3 -21 -7 -18 -8 4 -12 -100
-10 -264 1 -182 -1 -336 -5 -425 -3 -49 -1 -92 3 -95 4 -3 9 -52 11 -110 2
-58 9 -108 14 -112 6 -4 13 -42 16 -85 4 -43 11 -96 15 -118 4 -22 8 -61 8
-87 1 -27 6 -48 11 -48 6 0 11 -17 11 -37 1 -21 4 -49 7 -63 4 -14 9 -36 12
-49 2 -12 9 -29 15 -36 6 -7 9 -25 6 -39 -3 -14 -1 -26 3 -26 5 0 7 -10 7 -22
-1 -13 0 -27 3 -33 3 -5 6 -28 7 -49 0 -22 6 -42 12 -44 7 -2 12 -12 12 -23 0
-10 5 -19 10 -19 6 0 10 -8 10 -18 0 -10 8 -41 19 -70 10 -29 17 -68 16 -86
-1 -26 2 -33 13 -28 10 3 13 0 10 -9 -3 -8 1 -20 8 -27 7 -7 11 -21 9 -32 -2
-11 0 -18 6 -15 10 7 10 6 13 -46 1 -20 9 -44 19 -53 9 -10 17 -29 17 -42 0
-15 4 -23 10 -19 10 6 34 -46 34 -75 0 -8 4 -18 8 -21 5 -3 11 -16 13 -30 3
-13 10 -29 17 -34 19 -15 51 -75 44 -82 -3 -4 3 -12 14 -20 21 -15 28 -39 8
-27 -7 4 0 -14 16 -40 15 -26 25 -53 23 -61 -3 -7 6 -23 19 -36 14 -13 22 -29
20 -36 -3 -7 1 -13 9 -13 8 0 19 -9 25 -20 6 -11 7 -20 3 -20 -4 0 2 -7 13
-16 10 -8 12 -12 4 -8 -13 7 -13 5 -1 -9 7 -9 10 -17 5 -17 -5 0 -1 -5 9 -11
9 -6 15 -14 12 -19 -3 -5 -1 -11 5 -15 6 -4 8 -10 5 -15 -3 -4 9 -20 26 -34
17 -14 27 -26 22 -26 -4 0 -3 -4 2 -8 6 -4 19 -24 30 -44 11 -21 24 -38 28
-38 5 0 7 -7 4 -14 -4 -11 -1 -13 10 -9 11 4 14 3 9 -5 -4 -7 0 -15 9 -18 9
-4 23 -21 32 -38 9 -17 22 -35 29 -41 7 -5 14 -21 16 -35 2 -16 9 -25 20 -24
10 1 20 -8 24 -20 4 -11 14 -27 23 -34 9 -8 10 -11 4 -7 -8 3 -6 -6 5 -24 9
-17 25 -31 36 -31 14 0 17 -6 14 -24 -4 -18 -1 -23 11 -21 19 3 104 -82 98
-99 -2 -6 6 -19 17 -29 12 -10 14 -15 6 -11 -8 4 -4 -4 10 -18 14 -13 33 -28
44 -31 11 -4 16 -13 12 -22 -3 -8 -2 -14 2 -13 14 3 42 -14 36 -23 -3 -5 0 -9
6 -9 6 0 9 -3 7 -7 -6 -11 30 -43 39 -35 4 4 4 2 1 -5 -4 -6 6 -22 22 -35 16
-14 32 -34 35 -46 4 -13 13 -19 22 -15 9 3 14 -1 14 -12 0 -9 5 -13 10 -10 6
3 10 -1 10 -9 0 -8 9 -18 21 -21 13 -4 18 -12 15 -21 -3 -9 -1 -12 5 -9 6 4
18 0 27 -8 9 -7 25 -17 36 -21 11 -4 16 -12 12 -21 -3 -8 -2 -14 2 -13 15 4
52 -14 47 -23 -4 -5 -1 -9 4 -9 6 0 11 -7 11 -16 0 -10 5 -14 16 -10 8 3 13 2
10 -3 -3 -4 6 -14 19 -21 14 -7 25 -17 25 -22 0 -4 7 -8 16 -8 9 0 12 -5 8
-12 -5 -7 -3 -8 6 -3 9 5 22 -2 39 -21 14 -17 22 -23 17 -14 -5 8 2 3 17 -12
15 -15 27 -33 27 -39 0 -7 3 -10 6 -6 3 3 17 -4 31 -16 13 -12 26 -21 29 -19
2 1 13 -7 24 -18 11 -11 27 -20 35 -20 8 0 15 -4 15 -10 0 -5 6 -10 14 -10 8
0 18 -5 22 -12 4 -7 3 -8 -4 -4 -7 4 -12 4 -12 1 0 -3 19 -15 43 -25 23 -11
38 -20 32 -20 -5 0 1 -7 13 -16 12 -8 26 -12 32 -9 6 4 7 -1 3 -11 -5 -14 -2
-16 15 -12 12 4 22 3 22 0 0 -9 62 -37 73 -34 4 1 7 -5 7 -13 0 -16 34 -38 44
-27 4 3 4 -1 0 -11 -5 -14 0 -17 24 -17 18 0 35 -7 40 -16 5 -8 16 -16 26 -18
10 -1 21 -7 24 -12 4 -5 16 -9 27 -9 11 0 19 -6 17 -12 -1 -8 8 -13 23 -13 16
0 25 -6 25 -15 0 -14 17 -20 47 -16 7 1 20 -10 29 -24 10 -15 23 -24 31 -21 8
3 11 1 8 -4 -6 -10 6 -14 40 -10 11 1 17 -1 13 -6 -13 -12 27 -33 62 -32 21 1
36 -5 42 -15 5 -10 17 -17 28 -17 10 0 25 -7 34 -15 8 -8 24 -15 35 -15 12 0
21 -3 21 -7 0 -13 61 -44 72 -37 5 3 21 -4 34 -17 17 -16 35 -22 56 -21 21 2
29 -1 25 -11 -3 -9 7 -13 37 -13 22 0 56 -8 75 -17 19 -9 42 -17 53 -17 10 0
17 -5 16 -11 -2 -8 14 -12 43 -13 25 -1 58 -10 73 -19 15 -10 35 -16 44 -13
24 8 75 -7 80 -23 3 -8 0 -11 -5 -8 -5 3 -15 2 -23 -4 -22 -13 46 -12 72 2 17
9 30 7 64 -11 24 -12 59 -22 76 -22 18 0 38 -4 44 -9 27 -21 337 -71 554 -88
133 -11 596 -11 715 0 50 4 115 10 145 13 150 14 260 28 377 47 70 12 152 25
181 29 59 9 80 20 39 20 -17 0 -27 5 -27 15 0 8 9 15 20 15 11 0 20 -4 20 -9
0 -11 81 -5 89 6 3 5 11 8 16 8 25 0 124 29 120 35 -2 4 9 7 26 8 30 1 114 28
135 44 6 4 14 5 17 1 4 -3 7 -1 7 5 0 6 7 9 17 5 12 -5 14 -3 8 7 -5 8 -4 11
3 6 14 -8 114 23 107 34 -3 5 5 6 17 2 11 -3 19 -1 16 4 -4 5 5 10 20 11 14 0
29 8 34 17 5 8 15 13 23 10 8 -4 15 -1 15 6 0 6 5 8 10 5 6 -3 10 -2 10 4 0 6
6 8 14 5 7 -3 20 1 27 9 8 7 20 12 28 9 8 -3 11 0 7 7 -5 7 2 11 19 11 14 0
28 6 31 14 3 8 13 12 25 9 13 -4 19 0 19 10 0 10 6 13 20 10 12 -3 22 1 26 10
3 9 11 14 18 11 7 -3 24 6 39 20 14 13 28 21 31 18 4 -3 12 3 20 13 7 10 18
15 23 12 6 -4 13 0 17 8 3 8 11 12 19 9 8 -3 25 6 37 19 14 14 30 22 39 19 9
-3 12 -1 7 6 -5 8 0 12 13 12 12 0 21 4 21 8 0 5 6 9 13 9 16 0 97 53 97 63 0
5 9 6 19 3 13 -3 21 2 26 16 3 12 10 19 15 16 4 -3 10 2 14 10 3 8 12 15 21
15 22 0 103 53 153 100 15 13 33 25 41 27 7 1 19 7 25 14 8 9 7 10 -4 4 -12
-7 -13 -6 -2 6 7 8 20 14 30 14 9 0 16 5 15 12 -2 7 4 10 13 6 9 -3 14 0 12 8
-2 8 2 13 9 12 7 -2 17 6 23 17 6 10 16 17 23 14 7 -2 24 8 37 23 18 20 19 23
5 13 -18 -14 -19 -14 -7 2 8 9 20 14 27 11 9 -3 19 5 26 21 7 14 16 23 20 20
5 -3 9 2 9 11 0 9 4 13 10 10 10 -6 53 18 47 26 -2 2 8 15 22 29 13 14 20 18
16 10 -7 -13 12 2 62 46 6 7 9 14 6 18 -4 3 0 6 9 6 19 0 51 34 41 44 -5 4 -1
6 7 4 8 -2 14 3 12 10 -1 8 2 11 8 7 5 -3 10 -2 10 2 0 5 10 13 21 18 12 6 21
14 20 19 -1 5 8 14 21 21 13 6 22 17 20 23 -1 7 2 11 7 10 11 -4 111 103 111
119 0 7 13 22 30 34 16 12 26 27 23 32 -3 6 -1 7 5 3 12 -7 95 86 98 112 2 9
22 35 46 56 24 22 36 35 28 30 -9 -5 -2 3 15 18 16 15 26 28 20 28 -5 0 1 7
13 16 13 9 21 22 18 30 -3 8 0 11 10 7 12 -5 19 7 15 30 0 4 6 7 15 7 9 0 14
6 11 13 -3 7 4 19 15 26 11 7 18 14 15 17 -2 3 7 17 22 33 33 37 69 97 50 85
-8 -4 3 9 24 29 34 34 42 48 38 70 0 4 5 7 11 7 13 0 52 75 51 97 0 7 3 10 8
7 8 -5 11 2 8 22 0 3 6 11 14 17 15 12 77 126 81 149 1 7 7 23 14 34 6 12 8
25 4 29 -4 5 -2 5 4 2 11 -6 29 26 36 63 2 8 9 21 16 29 7 7 11 20 8 28 -3 7
1 16 10 20 8 3 13 12 10 20 -3 8 -1 11 4 8 9 -5 15 23 11 48 0 4 3 7 7 7 13 0
33 50 26 62 -5 7 -2 8 6 3 10 -6 12 -3 8 13 -4 14 -2 20 5 15 6 -4 8 2 4 16
-3 13 -3 20 0 17 8 -8 54 106 49 121 -3 6 0 13 5 15 6 2 12 16 12 31 1 15 5
27 10 27 4 0 7 10 7 23 0 13 4 27 10 33 5 5 11 25 13 44 2 19 12 53 22 75 9
22 21 71 26 108 5 38 11 73 15 78 11 18 44 162 50 214 3 28 7 56 9 63 3 7 11
88 20 180 8 92 17 185 20 207 4 40 8 84 22 240 8 90 6 473 -2 550 -3 28 -12
95 -20 150 -8 55 -19 170 -25 255 -11 179 -41 339 -67 357 -9 7 -13 13 -9 13
5 0 3 7 -4 15 -10 12 -10 15 3 15 10 0 14 7 12 18 -2 9 -10 44 -17 77 -7 33
-17 63 -24 67 -6 4 -11 23 -12 43 -1 19 -6 44 -12 54 -5 11 -10 29 -10 41 0
12 -4 18 -10 15 -6 -4 -10 6 -10 22 0 16 -5 34 -12 41 -12 12 -17 27 -22 72
-2 14 -12 41 -22 60 -18 34 -24 52 -26 77 -1 7 -5 10 -9 7 -13 -8 -29 31 -24
59 3 14 0 29 -6 33 -8 4 -9 3 -5 -4 4 -8 2 -10 -8 -6 -8 3 -12 12 -9 20 3 8 0
20 -6 28 -7 8 -11 18 -9 22 4 16 -13 54 -24 54 -5 0 -8 6 -5 14 3 8 -1 17 -8
20 -8 3 -12 12 -9 21 3 8 1 15 -6 15 -6 0 -8 5 -5 10 3 6 2 10 -4 10 -5 0 -13
10 -16 23 -4 12 -16 32 -27 43 -10 12 -20 31 -21 43 -1 11 -5 21 -9 21 -4 0
-8 9 -8 20 0 11 -6 23 -14 26 -7 3 -22 25 -32 49 -10 24 -21 42 -26 39 -8 -5
-12 26 -9 55 2 7 -2 10 -8 6 -6 -3 -20 9 -31 29 -12 19 -27 37 -35 39 -7 3
-12 17 -11 31 2 14 0 24 -3 22 -3 -2 -15 8 -25 22 -12 15 -14 22 -5 17 8 -4 4
2 -8 14 -12 11 -26 21 -30 21 -5 0 -9 9 -10 20 -2 23 -27 52 -37 43 -6 -6 -10
12 -7 30 0 4 -4 7 -10 7 -6 0 -8 7 -5 16 3 8 2 12 -4 9 -6 -3 -10 1 -10 10 0
10 -5 13 -11 9 -8 -5 -10 1 -7 19 3 14 2 25 -2 24 -13 -3 -60 57 -60 76 0 10
-4 16 -9 13 -9 -6 -26 22 -23 36 1 5 -1 7 -6 6 -10 -3 -62 47 -62 61 0 6 -5
11 -11 11 -5 0 -8 4 -5 9 3 5 -9 18 -27 30 -17 11 -31 23 -29 26 5 12 1 25 -8
25 -15 0 -70 61 -64 71 3 5 0 9 -6 9 -7 0 -9 7 -6 16 3 8 2 12 -4 9 -11 -7
-51 25 -44 36 2 4 -5 10 -16 14 -11 4 -18 10 -16 14 3 4 -13 18 -34 30 -22 12
-40 25 -40 27 0 3 4 2 10 -1 6 -3 7 1 4 10 -4 9 -13 14 -20 11 -8 -3 -13 -2
-12 2 3 15 -15 42 -29 42 -8 0 -12 4 -9 9 7 10 -44 47 -59 42 -5 -1 -7 0 -3 4
8 8 -23 46 -33 39 -4 -2 -11 6 -15 18 -8 27 -29 49 -38 41 -3 -4 -6 1 -6 10 0
9 -3 16 -7 16 -21 -3 -33 2 -33 16 0 8 -6 16 -12 16 -7 1 -18 2 -25 3 -15 1
-54 52 -46 60 3 3 -1 6 -10 6 -9 0 -17 5 -17 12 0 6 -3 8 -7 5 -3 -4 -15 0
-25 10 -10 9 -18 13 -18 9 0 -4 -7 0 -16 9 -9 8 -13 22 -10 30 3 8 2 14 -2 14
-20 -3 -32 3 -32 16 0 10 -8 14 -22 11 -23 -3 -53 18 -44 32 2 4 -4 8 -14 9
-10 1 -28 11 -39 22 -12 12 -28 21 -37 21 -11 0 -15 6 -11 19 4 15 0 19 -15
16 -21 -4 -52 18 -41 29 4 3 -3 6 -15 6 -12 0 -22 5 -22 10 0 6 -9 10 -21 10
-11 0 -17 5 -14 10 3 6 -3 10 -15 10 -12 0 -18 5 -15 10 3 6 -1 10 -10 10 -18
0 -45 23 -45 39 0 6 -7 8 -15 5 -8 -4 -15 -1 -15 7 0 7 -3 10 -6 6 -3 -3 -16
3 -27 14 -12 11 -27 17 -34 15 -7 -3 -10 1 -6 11 5 12 1 14 -13 9 -12 -4 -29
3 -47 18 -16 14 -35 22 -43 19 -8 -3 -14 0 -14 6 0 6 -6 11 -14 11 -7 0 -21
11 -30 25 -10 16 -22 22 -32 18 -10 -4 -20 1 -26 11 -5 9 -13 14 -19 11 -5 -4
-9 -1 -9 5 0 8 -9 10 -24 6 -24 -6 -56 14 -56 35 0 5 -9 9 -19 9 -11 0 -21 5
-23 12 -2 6 -18 11 -35 10 -23 0 -33 5 -41 24 -8 16 -16 22 -28 17 -13 -5 -16
-2 -12 8 4 11 -1 15 -24 13 -17 -1 -32 4 -35 11 -2 8 -11 11 -20 8 -8 -3 -19
0 -23 7 -4 7 -19 13 -34 13 -14 0 -23 3 -20 8 3 5 -7 14 -21 21 -21 9 -28 9
-34 -1 -10 -15 -100 18 -133 49 -12 11 -24 20 -27 20 -109 10 -157 23 -146 40
3 5 1 10 -4 10 -6 0 -11 -4 -11 -9 0 -8 -107 15 -120 26 -2 2 2 8 10 13 10 7
4 8 -20 5 -51 -7 -140 13 -140 31 0 11 -5 12 -16 6 -18 -10 -114 6 -114 19 0
5 -21 9 -47 9 -27 0 -136 11 -243 25 -107 14 -211 25 -231 25 -21 0 -39 4 -41
10 -2 6 -144 10 -370 12 -232 2 -364 0 -358 -6z m3980 -7540 c0 -2 -8 -10 -17
-17 -16 -13 -17 -12 -4 4 13 16 21 21 21 13z m-40 -49 c0 -2 -10 -12 -22 -23
l-23 -19 19 23 c18 21 26 27 26 19z"/>
<path d="M8719 2213 c-13 -16 -12 -17 4 -4 16 13 21 21 13 21 -2 0 -10 -8 -17
-17z"/>
<path d="M8549 2013 c-13 -16 -12 -17 4 -4 16 13 21 21 13 21 -2 0 -10 -8 -17
-17z"/>
</g>
</svg>
